<?xml version="1.0" encoding="us-ascii" standalone="no"?><svg xmlns="http://www.w3.org/2000/svg" xmlns:xlink="http://www.w3.org/1999/xlink" contentStyleType="text/css" height="483px" preserveAspectRatio="none" style="width:688px;height:483px;background:#FFFFFF;" version="1.1" viewBox="0 0 688 483" width="688px" zoomAndPan="magnify"><defs/><g><!--class kegiatan--><g id="elem_kegiatan"><rect codeLine="7" fill="#FFFFFF" height="63.9468" id="kegiatan" rx="5" ry="5" style="stroke:#2F4F75;stroke-width:0.5;" width="153" x="386.5" y="12"/><rect fill="#EEF4FB" height="22.6489" rx="5" ry="5" style="stroke:#EEF4FB;stroke-width:0.5;" width="153" x="386.5" y="12"/><rect fill="#EEF4FB" height="5" style="stroke:#EEF4FB;stroke-width:0.5;" width="153" x="386.5" y="29.6489"/><rect codeLine="7" fill="none" height="63.9468" id="kegiatan" rx="5" ry="5" style="stroke:#2F4F75;stroke-width:0.5;" width="153" x="386.5" y="12"/><text fill="#000000" font-family="Arial" font-size="11" lengthAdjust="spacing" textLength="40" x="443" y="27.3179">kegiatan</text><line style="stroke:#2F4F75;stroke-width:0.5;" x1="387.5" x2="538.5" y1="34.6489" y2="34.6489"/><ellipse cx="397.5" cy="46.4734" fill="#000000" rx="3" ry="3" style="stroke:#000000;stroke-width:1.0;"/><text fill="#000000" font-family="Arial" font-size="11" lengthAdjust="spacing" textLength="56" x="405.5" y="48.9668">id : int &#171;PK&#187;</text><line style="stroke:#2F4F75;stroke-width:1.0;" x1="387.5" x2="538.5" y1="55.2979" y2="55.2979"/><text fill="#000000" font-family="Arial" font-size="11" lengthAdjust="spacing" textLength="141" x="392.5" y="69.6157">namaKegiatan : varchar(255)</text></g><!--class ppl--><g id="elem_ppl"><rect codeLine="13" fill="#FFFFFF" height="127.1914" id="ppl" rx="5" ry="5" style="stroke:#2F4F75;stroke-width:0.5;" width="174" x="294" y="113"/><rect fill="#EEF4FB" height="22.6489" rx="5" ry="5" style="stroke:#EEF4FB;stroke-width:0.5;" width="174" x="294" y="113"/><rect fill="#EEF4FB" height="5" style="stroke:#EEF4FB;stroke-width:0.5;" width="174" x="294" y="130.6489"/><rect codeLine="13" fill="none" height="127.1914" id="ppl" rx="5" ry="5" style="stroke:#2F4F75;stroke-width:0.5;" width="174" x="294" y="113"/><text fill="#000000" font-family="Arial" font-size="11" lengthAdjust="spacing" textLength="14" x="374" y="128.3179">ppl</text><line style="stroke:#2F4F75;stroke-width:0.5;" x1="295" x2="467" y1="135.6489" y2="135.6489"/><ellipse cx="305" cy="147.4734" fill="#000000" rx="3" ry="3" style="stroke:#000000;stroke-width:1.0;"/><text fill="#000000" font-family="Arial" font-size="11" lengthAdjust="spacing" textLength="56" x="313" y="149.9668">id : int &#171;PK&#187;</text><line style="stroke:#2F4F75;stroke-width:1.0;" x1="295" x2="467" y1="156.2979" y2="156.2979"/><text fill="#000000" font-family="Arial" font-size="11" lengthAdjust="spacing" textLength="96" x="300" y="170.6157">kegiatanId : int &#171;FK&#187;</text><text fill="#000000" font-family="Arial" font-size="11" lengthAdjust="spacing" textLength="162" x="300" y="183.2646">ppl_master_id : varchar(50) &#171;FK&#187;</text><text fill="#000000" font-family="Arial" font-size="11" lengthAdjust="spacing" textLength="97" x="300" y="195.9136">pml_id : varchar(50)</text><text fill="#000000" font-family="Arial" font-size="11" lengthAdjust="spacing" textLength="62" x="300" y="208.5625">tahap : enum</text><text fill="#000000" font-family="Arial" font-size="11" lengthAdjust="spacing" textLength="89" x="300" y="221.2114">besaranHonor : int</text><text fill="#000000" font-family="Arial" font-size="11" lengthAdjust="spacing" textLength="132" x="300" y="233.8604">metodePembebanan : enum</text></g><!--class ppl_honorarium--><g id="elem_ppl_honorarium"><rect codeLine="24" fill="#FFFFFF" height="147.8403" id="ppl_honorarium" rx="5" ry="5" style="stroke:#2F4F75;stroke-width:0.5;" width="168" x="6" y="310"/><rect fill="#EEF4FB" height="22.6489" rx="5" ry="5" style="stroke:#EEF4FB;stroke-width:0.5;" width="168" x="6" y="310"/><rect fill="#EEF4FB" height="5" style="stroke:#EEF4FB;stroke-width:0.5;" width="168" x="6" y="327.6489"/><rect codeLine="24" fill="none" height="147.8403" id="ppl_honorarium" rx="5" ry="5" style="stroke:#2F4F75;stroke-width:0.5;" width="168" x="6" y="310"/><text fill="#000000" font-family="Arial" font-size="11" lengthAdjust="spacing" textLength="74" x="53" y="325.3179">ppl_honorarium</text><line style="stroke:#2F4F75;stroke-width:0.5;" x1="7" x2="173" y1="332.6489" y2="332.6489"/><ellipse cx="17" cy="344.4734" fill="#000000" rx="3" ry="3" style="stroke:#000000;stroke-width:1.0;"/><text fill="#000000" font-family="Arial" font-size="11" lengthAdjust="spacing" textLength="56" x="25" y="346.9668">id : int &#171;PK&#187;</text><line style="stroke:#2F4F75;stroke-width:1.0;" x1="7" x2="173" y1="353.2979" y2="353.2979"/><text fill="#000000" font-family="Arial" font-size="11" lengthAdjust="spacing" textLength="76" x="12" y="367.6157">ppl_id : int &#171;FK&#187;</text><text fill="#000000" font-family="Arial" font-size="11" lengthAdjust="spacing" textLength="110" x="12" y="380.2646">jenis_pekerjaan : enum</text><text fill="#000000" font-family="Arial" font-size="11" lengthAdjust="spacing" textLength="75" x="12" y="392.9136">bebanKerja : int</text><text fill="#000000" font-family="Arial" font-size="11" lengthAdjust="spacing" textLength="156" x="12" y="405.5625">satuanBebanKerja : varchar(50)</text><text fill="#000000" font-family="Arial" font-size="11" lengthAdjust="spacing" textLength="82" x="12" y="418.2114">hargaSatuan : int</text><text fill="#000000" font-family="Arial" font-size="11" lengthAdjust="spacing" textLength="89" x="12" y="430.8604">besaranHonor : int</text><line style="stroke:#2F4F75;stroke-width:1.0;stroke-dasharray:1.0,2.0;" x1="7" x2="173" y1="437.1914" y2="437.1914"/><text fill="#000000" font-family="Arial" font-size="11" lengthAdjust="spacing" textLength="135" x="12" y="451.5093">UQ (ppl_id, jenis_pekerjaan)</text></g><!--class ppl_honor_bulan--><g id="elem_ppl_honor_bulan"><rect codeLine="37" fill="#FFFFFF" height="109.8936" id="ppl_honor_bulan" rx="5" ry="5" style="stroke:#2F4F75;stroke-width:0.5;" width="99" x="192.5" y="329"/><rect fill="#EEF4FB" height="22.6489" rx="5" ry="5" style="stroke:#EEF4FB;stroke-width:0.5;" width="99" x="192.5" y="329"/><rect fill="#EEF4FB" height="5" style="stroke:#EEF4FB;stroke-width:0.5;" width="99" x="192.5" y="346.6489"/><rect codeLine="37" fill="none" height="109.8936" id="ppl_honor_bulan" rx="5" ry="5" style="stroke:#2F4F75;stroke-width:0.5;" width="99" x="192.5" y="329"/><text fill="#000000" font-family="Arial" font-size="11" lengthAdjust="spacing" textLength="80" x="202" y="344.3179">ppl_honor_bulan</text><line style="stroke:#2F4F75;stroke-width:0.5;" x1="193.5" x2="290.5" y1="351.6489" y2="351.6489"/><ellipse cx="203.5" cy="363.4734" fill="#000000" rx="3" ry="3" style="stroke:#000000;stroke-width:1.0;"/><text fill="#000000" font-family="Arial" font-size="11" lengthAdjust="spacing" textLength="56" x="211.5" y="365.9668">id : int &#171;PK&#187;</text><line style="stroke:#2F4F75;stroke-width:1.0;" x1="193.5" x2="290.5" y1="372.2979" y2="372.2979"/><text fill="#000000" font-family="Arial" font-size="11" lengthAdjust="spacing" textLength="76" x="198.5" y="386.6157">ppl_id : int &#171;FK&#187;</text><text fill="#000000" font-family="Arial" font-size="11" lengthAdjust="spacing" textLength="87" x="198.5" y="399.2646">bulan : varchar(7)</text><text fill="#000000" font-family="Arial" font-size="11" lengthAdjust="spacing" textLength="50" x="198.5" y="411.9136">jumlah : int</text><line style="stroke:#2F4F75;stroke-width:1.0;stroke-dasharray:1.0,2.0;" x1="193.5" x2="290.5" y1="418.2446" y2="418.2446"/><text fill="#000000" font-family="Arial" font-size="11" lengthAdjust="spacing" textLength="86" x="198.5" y="432.5625">UQ (ppl_id, bulan)</text></g><!--class ppl_progress--><g id="elem_ppl_progress"><rect codeLine="47" fill="#FFFFFF" height="109.8936" id="ppl_progress" rx="5" ry="5" style="stroke:#2F4F75;stroke-width:0.5;" width="143" x="309.5" y="329"/><rect fill="#EEF4FB" height="22.6489" rx="5" ry="5" style="stroke:#EEF4FB;stroke-width:0.5;" width="143" x="309.5" y="329"/><rect fill="#EEF4FB" height="5" style="stroke:#EEF4FB;stroke-width:0.5;" width="143" x="309.5" y="346.6489"/><rect codeLine="47" fill="none" height="109.8936" id="ppl_progress" rx="5" ry="5" style="stroke:#2F4F75;stroke-width:0.5;" width="143" x="309.5" y="329"/><text fill="#000000" font-family="Arial" font-size="11" lengthAdjust="spacing" textLength="64" x="349" y="344.3179">ppl_progress</text><line style="stroke:#2F4F75;stroke-width:0.5;" x1="310.5" x2="451.5" y1="351.6489" y2="351.6489"/><ellipse cx="320.5" cy="363.4734" fill="#000000" rx="3" ry="3" style="stroke:#000000;stroke-width:1.0;"/><text fill="#000000" font-family="Arial" font-size="11" lengthAdjust="spacing" textLength="56" x="328.5" y="365.9668">id : int &#171;PK&#187;</text><line style="stroke:#2F4F75;stroke-width:1.0;" x1="310.5" x2="451.5" y1="372.2979" y2="372.2979"/><text fill="#000000" font-family="Arial" font-size="11" lengthAdjust="spacing" textLength="76" x="315.5" y="386.6157">ppl_id : int &#171;FK&#187;</text><text fill="#000000" font-family="Arial" font-size="11" lengthAdjust="spacing" textLength="106" x="315.5" y="399.2646">progress_type : enum</text><text fill="#000000" font-family="Arial" font-size="11" lengthAdjust="spacing" textLength="46" x="315.5" y="411.9136">value : int</text><line style="stroke:#2F4F75;stroke-width:1.0;stroke-dasharray:1.0,2.0;" x1="310.5" x2="451.5" y1="418.2446" y2="418.2446"/><text fill="#000000" font-family="Arial" font-size="11" lengthAdjust="spacing" textLength="131" x="315.5" y="432.5625">UQ (ppl_id, progress_type)</text></g><!--class penilaian_mitra--><g id="elem_penilaian_mitra"><rect codeLine="57" fill="#FFFFFF" height="185.7871" id="penilaian_mitra" rx="5" ry="5" style="stroke:#2F4F75;stroke-width:0.5;" width="167" x="470.5" y="291"/><rect fill="#EEF4FB" height="22.6489" rx="5" ry="5" style="stroke:#EEF4FB;stroke-width:0.5;" width="167" x="470.5" y="291"/><rect fill="#EEF4FB" height="5" style="stroke:#EEF4FB;stroke-width:0.5;" width="167" x="470.5" y="308.6489"/><rect codeLine="57" fill="none" height="185.7871" id="penilaian_mitra" rx="5" ry="5" style="stroke:#2F4F75;stroke-width:0.5;" width="167" x="470.5" y="291"/><text fill="#000000" font-family="Arial" font-size="11" lengthAdjust="spacing" textLength="71" x="518.5" y="306.3179">penilaian_mitra</text><line style="stroke:#2F4F75;stroke-width:0.5;" x1="471.5" x2="636.5" y1="313.6489" y2="313.6489"/><ellipse cx="481.5" cy="325.4734" fill="#000000" rx="3" ry="3" style="stroke:#000000;stroke-width:1.0;"/><text fill="#000000" font-family="Arial" font-size="11" lengthAdjust="spacing" textLength="56" x="489.5" y="327.9668">id : int &#171;PK&#187;</text><line style="stroke:#2F4F75;stroke-width:1.0;" x1="471.5" x2="636.5" y1="334.2979" y2="334.2979"/><text fill="#000000" font-family="Arial" font-size="11" lengthAdjust="spacing" textLength="70" x="476.5" y="348.6157">pplId : int &#171;FK&#187;</text><text fill="#000000" font-family="Arial" font-size="11" lengthAdjust="spacing" textLength="96" x="476.5" y="361.2646">kegiatanId : int &#171;FK&#187;</text><text fill="#000000" font-family="Arial" font-size="11" lengthAdjust="spacing" textLength="91" x="476.5" y="373.9136">pmlId : varchar(50)</text><text fill="#000000" font-family="Arial" font-size="11" lengthAdjust="spacing" textLength="88" x="476.5" y="386.5625">sikap_perilaku : int</text><text fill="#000000" font-family="Arial" font-size="11" lengthAdjust="spacing" textLength="109" x="476.5" y="399.2114">kualitas_pekerjaan : int</text><text fill="#000000" font-family="Arial" font-size="11" lengthAdjust="spacing" textLength="103" x="476.5" y="411.8604">ketepatan_waktu : int</text><text fill="#000000" font-family="Arial" font-size="11" lengthAdjust="spacing" textLength="112" x="476.5" y="424.5093">rata_rata : decimal(4,2)</text><text fill="#000000" font-family="Arial" font-size="11" lengthAdjust="spacing" textLength="155" x="476.5" y="437.1582">dinilai_oleh_userId : varchar(50)</text><text fill="#000000" font-family="Arial" font-size="11" lengthAdjust="spacing" textLength="140" x="476.5" y="449.8071">tanggal_penilaian : timestamp</text><line style="stroke:#2F4F75;stroke-width:1.0;stroke-dasharray:1.0,2.0;" x1="471.5" x2="636.5" y1="456.1382" y2="456.1382"/><text fill="#000000" font-family="Arial" font-size="11" lengthAdjust="spacing" textLength="102" x="476.5" y="470.4561">UQ (pplId, kegiatanId)</text></g><!--class users--><g id="elem_users"><rect codeLine="73" fill="#FFFFFF" height="63.9468" id="users" rx="5" ry="5" style="stroke:#2F4F75;stroke-width:0.5;" width="154" x="527" y="144.5"/><rect fill="#EEF4FB" height="22.6489" rx="5" ry="5" style="stroke:#EEF4FB;stroke-width:0.5;" width="154" x="527" y="144.5"/><rect fill="#EEF4FB" height="5" style="stroke:#EEF4FB;stroke-width:0.5;" width="154" x="527" y="162.1489"/><rect codeLine="73" fill="none" height="63.9468" id="users" rx="5" ry="5" style="stroke:#2F4F75;stroke-width:0.5;" width="154" x="527" y="144.5"/><text fill="#000000" font-family="Arial" font-size="11" lengthAdjust="spacing" textLength="28" x="590" y="159.8179">users</text><line style="stroke:#2F4F75;stroke-width:0.5;" x1="528" x2="680" y1="167.1489" y2="167.1489"/><ellipse cx="538" cy="178.9734" fill="#000000" rx="3" ry="3" style="stroke:#000000;stroke-width:1.0;"/><text fill="#000000" font-family="Arial" font-size="11" lengthAdjust="spacing" textLength="103" x="546" y="181.4668">id : varchar(50) &#171;PK&#187;</text><line style="stroke:#2F4F75;stroke-width:1.0;" x1="528" x2="680" y1="187.7979" y2="187.7979"/><text fill="#000000" font-family="Arial" font-size="11" lengthAdjust="spacing" textLength="142" x="533" y="202.1157">nama_lengkap : varchar(255)</text></g><line style="stroke:#333333;stroke-width:1.0;" x1="437.8439" x2="444.6177" y1="77.5167" y2="81.773"/><line style="stroke:#333333;stroke-width:1.0;" x1="436.2478" x2="443.0216" y1="80.0569" y2="84.3132"/><line style="stroke:#333333;stroke-width:1.0;" x1="439.1026" x2="443.359" y1="83.0318" y2="76.258"/><line style="stroke:#333333;stroke-width:1.0;" x1="424.6904" x2="425.5144" y1="105.9683" y2="115.9343"/><line style="stroke:#333333;stroke-width:1.0;" x1="424.6904" x2="415.3538" y1="105.9683" y2="109.5498"/><line style="stroke:#333333;stroke-width:1.0;" x1="424.6904" x2="420.4341" y1="105.9683" y2="112.742"/><ellipse cx="427.8827" cy="100.888" fill="none" rx="4" ry="4" style="stroke:#333333;stroke-width:1.0;"/><path d="M439.1026,83.0318 C432.185,94.0409 437.975,84.8264 430.0108,97.5011 " fill="none" style="stroke:#333333;stroke-width:1.1;"/><line style="stroke:#333333;stroke-width:1.0;" x1="288.568" x2="291.9935" y1="211.1433" y2="218.3728"/><line style="stroke:#333333;stroke-width:1.0;" x1="285.8569" x2="289.2824" y1="212.4278" y2="219.6574"/><line style="stroke:#333333;stroke-width:1.0;" x1="286.666" x2="293.8955" y1="216.4708" y2="213.0453"/><line style="stroke:#333333;stroke-width:1.0;" x1="160.6783" x2="159.2468" y1="304.1374" y2="314.0344"/><line style="stroke:#333333;stroke-width:1.0;" x1="160.6783" x2="150.7763" y1="304.1374" y2="305.5344"/><line style="stroke:#333333;stroke-width:1.0;" x1="160.6783" x2="155.0116" y1="304.1374" y2="309.7844"/><ellipse cx="164.9283" cy="299.9022" fill="none" rx="4" ry="4" style="stroke:#333333;stroke-width:1.0;"/><path d="M286.666,216.4708 C260.2774,228.9742 239.1393,240.8227 215,258 C193.9953,272.9468 186.0667,278.8372 167.7616,297.0787 " fill="none" style="stroke:#333333;stroke-width:1.1;"/><text fill="#000000" font-family="Arial" font-size="12" lengthAdjust="spacing" textLength="72" x="216" y="270.2559">rincian honor</text><line style="stroke:#333333;stroke-width:1.0;" x1="309.0833" x2="315.1873" y1="240.8038" y2="245.9751"/><line style="stroke:#333333;stroke-width:1.0;" x1="307.1441" x2="313.2481" y1="243.0928" y2="248.264"/><line style="stroke:#333333;stroke-width:1.0;" x1="309.5497" x2="314.7209" y1="246.4414" y2="240.3375"/><line style="stroke:#333333;stroke-width:1.0;" x1="265.9502" x2="268.2574" y1="321.4665" y2="331.1967"/><line style="stroke:#333333;stroke-width:1.0;" x1="265.9502" x2="257.2552" y1="321.4665" y2="326.4058"/><line style="stroke:#333333;stroke-width:1.0;" x1="265.9502" x2="262.7563" y1="321.4665" y2="328.8013"/><ellipse cx="268.3456" cy="315.9654" fill="none" rx="4" ry="4" style="stroke:#333333;stroke-width:1.0;"/><path d="M309.5497,246.4414 C304.6621,252.2105 305.1861,252.0314 301,258 C285.7736,279.7097 279.8857,289.4637 269.9426,312.298 " fill="none" style="stroke:#333333;stroke-width:1.1;"/><text fill="#000000" font-family="Arial" font-size="12" lengthAdjust="spacing" textLength="74" x="302" y="270.2559">pembebanan</text><line style="stroke:#333333;stroke-width:1.0;" x1="377" x2="385" y1="244.2734" y2="244.2734"/><line style="stroke:#333333;stroke-width:1.0;" x1="377" x2="385" y1="247.2734" y2="247.2734"/><line style="stroke:#333333;stroke-width:1.0;" x1="381" x2="381" y1="248.2734" y2="240.2734"/><line style="stroke:#333333;stroke-width:1.0;" x1="381" x2="387" y1="320.9401" y2="328.9401"/><line style="stroke:#333333;stroke-width:1.0;" x1="381" x2="375" y1="320.9401" y2="328.9401"/><line style="stroke:#333333;stroke-width:1.0;" x1="381" x2="381" y1="320.9401" y2="328.9401"/><ellipse cx="381" cy="314.9401" fill="none" rx="4" ry="4" style="stroke:#333333;stroke-width:1.0;"/><path d="M381,248.2734 C381,276.6017 381,283.7331 381,310.9401 " fill="none" style="stroke:#333333;stroke-width:1.1;"/><text fill="#000000" font-family="Arial" font-size="12" lengthAdjust="spacing" textLength="43" x="382" y="270.2559">progres</text><line style="stroke:#333333;stroke-width:1.0;" x1="430.9168" x2="424.3792" y1="248.8923" y2="240.0459"/><ellipse cx="430.9168" cy="248.8923" fill="none" rx="4" ry="4" style="stroke:#333333;stroke-width:1.0;"/><line style="stroke:#333333;stroke-width:1.0;" x1="423.5397" x2="429.9734" y1="245.6401" y2="240.8854"/><line style="stroke:#333333;stroke-width:1.0;" x1="463.004" x2="470.3222" y1="288.3807" y2="296.5931"/><ellipse cx="463.004" cy="288.3807" fill="none" rx="4" ry="4" style="stroke:#333333;stroke-width:1.0;"/><line style="stroke:#333333;stroke-width:1.0;" x1="470.6473" x2="464.6747" y1="290.9456" y2="296.268"/><path d="M433.2942,252.1092 C441.5495,263.28 441.3909,262.6012 450,273 C456.4525,280.7939 453.3371,277.5327 460.3428,285.3944 " fill="none" style="stroke:#333333;stroke-width:1.1;"/><text fill="#000000" font-family="Arial" font-size="12" lengthAdjust="spacing" textLength="33" x="451" y="270.2559">dinilai</text><line style="stroke:#333333;stroke-width:1.0;" x1="468.5754" x2="476.3003" y1="81.0947" y2="79.015"/><line style="stroke:#333333;stroke-width:1.0;" x1="469.3553" x2="477.0802" y1="83.9916" y2="81.9118"/><line style="stroke:#333333;stroke-width:1.0;" x1="473.4777" x2="471.3979" y1="83.9173" y2="76.1924"/><line style="stroke:#333333;stroke-width:1.0;" x1="527.0766" x2="534.9501" y1="282.9988" y2="289.1639"/><line style="stroke:#333333;stroke-width:1.0;" x1="527.0766" x2="523.3627" y1="282.9988" y2="292.2836"/><line style="stroke:#333333;stroke-width:1.0;" x1="527.0766" x2="529.1564" y1="282.9988" y2="290.7238"/><ellipse cx="525.5168" cy="277.2052" fill="none" rx="4" ry="4" style="stroke:#333333;stroke-width:1.0;"/><path d="M473.4777,83.9173 C486.4796,132.2101 505.2289,201.8504 524.4769,273.3427 " fill="none" style="stroke:#333333;stroke-width:1.1;"/><line style="stroke:#333333;stroke-width:1.0;" x1="593.8055" x2="596.4061" y1="219.3992" y2="208.711"/><ellipse cx="593.8055" cy="219.3992" fill="none" rx="4" ry="4" style="stroke:#333333;stroke-width:1.0;"/><line style="stroke:#333333;stroke-width:1.0;" x1="591.5738" x2="599.347" y1="211.652" y2="213.5433"/><line style="stroke:#333333;stroke-width:1.0;" x1="578.2931" x2="582.2317" y1="283.1554" y2="292.3471"/><line style="stroke:#333333;stroke-width:1.0;" x1="578.2931" x2="570.5719" y1="283.1554" y2="289.5102"/><line style="stroke:#333333;stroke-width:1.0;" x1="578.2931" x2="576.4018" y1="283.1554" y2="290.9286"/><ellipse cx="579.7116" cy="277.3255" fill="none" rx="4" ry="4" style="stroke:#333333;stroke-width:1.0;"/><path d="M592.8599,223.2858 C587.5054,245.2929 587.8376,243.9276 580.6572,273.4389 " fill="none" style="stroke:#333333;stroke-width:1.1;stroke-dasharray:7.0,7.0;"/><text fill="#000000" font-family="Arial" font-size="12" lengthAdjust="spacing" textLength="41" x="585" y="270.2559">menilai</text><!--SRC=[dLJ1Rjim3BtxAxXUcWn9DXGD1WH53yCsBCYbsz2pGCU4hLYI3Kdk43G3zX7xmdt9A3kEupZDW5vawuaKtoCfNiFdxvyWnbIYWPjtjmkmqgp39YjCOITGaeufHiD8IHRYIg5Xr1Qf9JU1fCQDLCW-qJNy_Vq77EaApHOX9fkYyPL9eSG4mQ6l05MHevEWfRS8ex9KurdqXeEgAY4GAMvn9YkjeapoVYtjMb7phybdHUAYY8oNVWjNEJ5jZ-OAq46xWUS8u2t811OWZOUxkuVL_JrZqoal1ZMkMii5FA5TPsX7D_FvEFhLtSoiwalvU_c-DkgoE_xI7BEhqEWyML7xjg7cxyT7HbeDJXdsc679A9bAypOcXnRDrr2H9Wo3d8qYeOUkF7lplWfHbn4jPxGLT0HTrXPivK3NXgljH4avsGrsOGDBvh4Aw85ZA3YQZyS7VQ7yb-AFskhWT5RjRCRBuxUwNvZKv9J6-AnkKRThNtY3lKPvuzX9-10KRBXLCNkPP-qqOBT_F-v0hGLUmwlr5NvRKbUF9rGLlKoivzKdsBvdKR_HXcCV-o_DuNkuy59qOzvl3ITpBBd0bkFcrK57Ng6I7liTk3yYJsK88NvYxZiNovW82oC9hQL6DRgTt8GWYQnbYK9H9Yf7TddkCPeqHIvHcmAsy5AJywZBaymkER6Tq5vMm-rDlUk_umpsHyFfk1AAJ9hNy-1qN1rctcutdHRF8V5H65dTzlYndypsivQYRV9kxf_Q7LfrqVPGOr6mnMxGA8isnqEoVSkeISkkcCs6XtoDRf3e7m00]--></g></svg>